Open-Science-Icons-Regular.ufo
<glyph name="uniE900" format="2">
	<advance width="974"/>
	<unicode hex="E900"/>
	<outline>
		<contour>
			<point x="487" y="1" type="curve"/>
			<point x="729" y="1"/>
			<point x="924" y="196"/>
			<point x="924" y="438" type="curve"/>
			<point x="924" y="679"/>
			<point x="729" y="874"/>
			<point x="487" y="874" type="curve"/>
			<point x="487" y="874" type="line"/>
			<point x="246" y="874"/>
			<point x="50" y="679"/>
			<point x="50" y="438" type="curve"/>
			<point x="50" y="196"/>
			<point x="246" y="1"/>
		</contour>
		<contour>
			<point x="479" y="179" type="line"/>
			<point x="474" y="179"/>
			<point x="468" y="183"/>
			<point x="465" y="187" type="curve"/>
			<point x="333" y="441" type="line"/>
			<point x="332" y="441" type="line"/>
			<point x="297" y="199" type="line"/>
			<point x="297" y="193"/>
			<point x="290" y="187"/>
			<point x="282" y="187" type="curve"/>
			<point x="190" y="187" type="line"/>
			<point x="181" y="187"/>
			<point x="174" y="194"/>
			<point x="175" y="204" type="curve"/>
			<point x="264" y="729" type="line"/>
			<point x="265" y="736"/>
			<point x="272" y="741"/>
			<point x="278" y="741" type="curve"/>
			<point x="290" y="741" type="line"/>
			<point x="294" y="741"/>
			<point x="301" y="738"/>
			<point x="304" y="734" type="curve"/>
			<point x="485" y="396" type="line"/>
			<point x="486" y="396" type="line"/>
			<point x="668" y="734" type="line"/>
			<point x="670" y="738"/>
			<point x="677" y="741"/>
			<point x="681" y="741" type="curve"/>
			<point x="693" y="741" type="line"/>
			<point x="700" y="741"/>
			<point x="707" y="736"/>
			<point x="707" y="729" type="curve"/>
			<point x="796" y="204" type="line"/>
			<point x="797" y="194"/>
			<point x="790" y="187"/>
			<point x="781" y="187" type="curve"/>
			<point x="689" y="187" type="line"/>
			<point x="682" y="187"/>
			<point x="675" y="193"/>
			<point x="674" y="199" type="curve"/>
			<point x="639" y="441" type="line"/>
			<point x="637" y="441" type="line"/>
			<point x="506" y="187" type="line"/>
			<point x="504" y="183"/>
			<point x="497" y="179"/>
			<point x="493" y="179" type="curve"/>
		</contour>
	</outline>
</glyph>
<glyph name="uniE901" format="2">
	<advance width="974"/>
	<unicode hex="E901"/>
	<outline>
		<contour>
			<point x="487" y="1" type="curve"/>
			<point x="729" y="1"/>
			<point x="924" y="196"/>
			<point x="924" y="438" type="curve"/>
			<point x="924" y="679"/>
			<point x="729" y="874"/>
			<point x="487" y="874" type="curve"/>
			<point x="487" y="874" type="line"/>
			<point x="246" y="874"/>
			<point x="50" y="679"/>
			<point x="50" y="438" type="curve"/>
			<point x="50" y="196"/>
			<point x="246" y="1"/>
		</contour>
		<contour>
			<point x="487" y="125" type="curve"/>
			<point x="375" y="125"/>
			<point x="312" y="172"/>
			<point x="292" y="192" type="curve"/>
			<point x="284" y="201"/>
			<point x="281" y="204"/>
			<point x="288" y="216" type="curve"/>
			<point x="329" y="288" type="line"/>
			<point x="336" y="299"/>
			<point x="352" y="298"/>
			<point x="358" y="293" type="curve"/>
			<point x="362" y="292"/>
			<point x="424" y="246"/>
			<point x="481" y="246" type="curve"/>
			<point x="516" y="246"/>
			<point x="541" y="267"/>
			<point x="541" y="298" type="curve"/>
			<point x="541" y="334"/>
			<point x="511" y="362"/>
			<point x="452" y="385" type="curve"/>
			<point x="377" y="415"/>
			<point x="284" y="473"/>
			<point x="284" y="577" type="curve"/>
			<point x="284" y="663"/>
			<point x="350" y="750"/>
			<point x="484" y="750" type="curve"/>
			<point x="574" y="750"/>
			<point x="644" y="704"/>
			<point x="670" y="685" type="curve"/>
			<point x="680" y="679"/>
			<point x="678" y="663"/>
			<point x="675" y="657" type="curve"/>
			<point x="631" y="590" type="line"/>
			<point x="624" y="581"/>
			<point x="609" y="573"/>
			<point x="601" y="579" type="curve"/>
			<point x="593" y="583"/>
			<point x="530" y="631"/>
			<point x="477" y="631" type="curve"/>
			<point x="446" y="631"/>
			<point x="422" y="610"/>
			<point x="422" y="587" type="curve"/>
			<point x="422" y="555"/>
			<point x="448" y="530"/>
			<point x="517" y="503" type="curve"/>
			<point x="585" y="476"/>
			<point x="692" y="423"/>
			<point x="692" y="305" type="curve"/>
			<point x="692" y="215"/>
			<point x="615" y="125"/>
		</contour>
	</outline>
</glyph>
<glyph name="uniE902" format="2">
	<advance width="1000"/>
	<unicode hex="E902"/>
	<outline>
		<contour>
			<point x="501.25" y="0.625" type="curve"/>
			<point x="742.536" y="0.625"/>
			<point x="938.125" y="196.214"/>
			<point x="938.125" y="437.5" type="curve"/>
			<point x="938.125" y="678.786"/>
			<point x="742.536" y="874.375"/>
			<point x="501.25" y="874.375" type="curve"/>
			<point x="501.25" y="874.375" type="line"/>
			<point x="259.964" y="874.375"/>
			<point x="64.375" y="678.786"/>
			<point x="64.375" y="437.5" type="curve"/>
			<point x="64.375" y="196.214"/>
			<point x="259.964" y="0.625"/>
		</contour>
		<contour>
			<point x="432.425" y="398.768" type="line"/>
			<point x="566.325" y="398.768" type="line"/>
			<point x="499.375" y="544.014" type="line"/>
			<point x="498.494" y="544.014" type="line"/>
		</contour>
		<contour>
			<point x="219.241" y="187.5" type="line"/>
			<point x="206.027" y="187.5"/>
			<point x="198.98" y="198.944"/>
			<point x="204.265" y="210.387" type="curve"/>
			<point x="479.995" y="802.817" type="line"/>
			<point x="482.637" y="808.099"/>
			<point x="488.804" y="812.5"/>
			<point x="494.97" y="812.5" type="curve"/>
			<point x="503.78" y="812.5" type="line"/>
			<point x="509.946" y="812.5"/>
			<point x="516.113" y="808.099"/>
			<point x="518.755" y="802.817" type="curve"/>
			<point x="794.485" y="210.387" type="line"/>
			<point x="799.771" y="198.944"/>
			<point x="792.723" y="187.5"/>
			<point x="779.509" y="187.5" type="curve"/>
			<point x="681.727" y="187.5" type="line"/>
			<point x="665.87" y="187.5"/>
			<point x="658.822" y="192.782"/>
			<point x="650.894" y="209.507" type="curve"/>
			<point x="619.181" y="279.049" type="line"/>
			<point x="379.569" y="279.049" type="line"/>
			<point x="347.856" y="208.627" type="line"/>
			<point x="343.451" y="198.063"/>
			<point x="333.761" y="187.5"/>
			<point x="316.143" y="187.5" type="curve"/>
		</contour>
	</outline>
</glyph>
<glyph name="uniE903" format="2">
	<advance width="1000"/>
	<unicode hex="E903"/>
	<outline>
		<contour>
			<point x="501.25" y="0.625" type="curve"/>
			<point x="742.536" y="0.625"/>
			<point x="938.125" y="196.214"/>
			<point x="938.125" y="437.5" type="curve"/>
			<point x="938.125" y="678.786"/>
			<point x="742.536" y="874.375"/>
			<point x="501.25" y="874.375" type="curve"/>
			<point x="501.25" y="874.375" type="line"/>
			<point x="259.964" y="874.375"/>
			<point x="64.375" y="678.786"/>
			<point x="64.375" y="437.5" type="curve"/>
			<point x="64.375" y="196.214"/>
			<point x="259.964" y="0.625"/>
		</contour>
		<contour>
			<point x="339.411" y="125" type="line"/>
			<point x="329.621" y="125"/>
			<point x="322.5" y="133.036"/>
			<point x="322.5" y="141.964" type="curve"/>
			<point x="322.5" y="733.036" type="line"/>
			<point x="322.5" y="741.964"/>
			<point x="329.621" y="750"/>
			<point x="339.411" y="750" type="curve"/>
			<point x="553.917" y="750" type="line"/>
			<point x="663.394" y="750"/>
			<point x="753.291" y="660.714"/>
			<point x="753.291" y="552.679" type="curve"/>
			<point x="753.291" y="441.964"/>
			<point x="663.394" y="351.786"/>
			<point x="554.807" y="351.786" type="curve"/>
			<point x="461.35" y="351.786" type="line"/>
			<point x="461.35" y="141.964" type="line"/>
			<point x="461.35" y="133.036"/>
			<point x="453.339" y="125"/>
			<point x="444.439" y="125" type="curve"/>
		</contour>
		<contour>
			<point x="461.35" y="482.143" type="line"/>
			<point x="545.906" y="482.143" type="line"/>
			<point x="584.179" y="482.143"/>
			<point x="616.221" y="512.5"/>
			<point x="616.221" y="552.679" type="curve"/>
			<point x="616.221" y="590.179"/>
			<point x="584.179" y="618.75"/>
			<point x="545.906" y="618.75" type="curve"/>
			<point x="461.35" y="618.75" type="line"/>
		</contour>
	</outline>
</glyph>
<glyph name="uniE904" format="2">
	<advance width="1000"/>
	<unicode hex="E904"/>
	<outline>
		<contour>
			<point x="501.25" y="0.625" type="curve"/>
			<point x="742.536" y="0.625"/>
			<point x="938.125" y="196.214"/>
			<point x="938.125" y="437.5" type="curve"/>
			<point x="938.125" y="678.786"/>
			<point x="742.536" y="874.375"/>
			<point x="501.25" y="874.375" type="curve"/>
			<point x="501.25" y="874.375" type="line"/>
			<point x="259.964" y="874.375"/>
			<point x="64.375" y="678.786"/>
			<point x="64.375" y="437.5" type="curve"/>
			<point x="64.375" y="196.214"/>
			<point x="259.964" y="0.625"/>
		</contour>
		<contour>
			<point x="244.44" y="172.5" type="line"/>
			<point x="236.08" y="172.5"/>
			<point x="230" y="179.33"/>
			<point x="230" y="186.92" type="curve"/>
			<point x="230" y="689.33" type="line"/>
			<point x="230" y="696.92"/>
			<point x="236.08" y="703.75"/>
			<point x="244.44" y="703.75" type="curve"/>
			<point x="427.596" y="703.75" type="line"/>
			<point x="521.074" y="703.75"/>
			<point x="597.832" y="627.857"/>
			<point x="597.832" y="536.027" type="curve"/>
			<point x="597.832" y="441.92"/>
			<point x="521.074" y="365.268"/>
			<point x="428.356" y="365.268" type="curve"/>
			<point x="348.557" y="365.268" type="line"/>
			<point x="348.557" y="186.92" type="line"/>
			<point x="348.557" y="179.33"/>
			<point x="341.718" y="172.5"/>
			<point x="334.118" y="172.5" type="curve"/>
		</contour>
		<contour>
			<point x="348.557" y="476.071" type="line"/>
			<point x="420.756" y="476.071" type="line"/>
			<point x="453.435" y="476.071"/>
			<point x="480.795" y="501.875"/>
			<point x="480.795" y="536.027" type="curve"/>
			<point x="480.795" y="567.902"/>
			<point x="453.435" y="592.188"/>
			<point x="420.756" y="592.188" type="curve"/>
			<point x="348.557" y="592.188" type="line"/>
		</contour>
		<contour>
			<point x="640.899" y="177.56" type="line"/>
			<point x="633.299" y="177.56"/>
			<point x="626.459" y="184.39"/>
			<point x="626.459" y="191.979" type="curve"/>
			<point x="626.459" y="466.711" type="line"/>
			<point x="626.459" y="475.06"/>
			<point x="633.299" y="481.131"/>
			<point x="640.899" y="481.131" type="curve"/>
			<point x="676.618" y="481.131" type="line"/>
			<point x="684.978" y="481.131"/>
			<point x="688.018" y="476.577"/>
			<point x="690.297" y="472.024" type="curve"/>
			<point x="703.977" y="438.631" type="line"/>
			<point x="719.177" y="460.64"/>
			<point x="747.296" y="488.72"/>
			<point x="786.815" y="488.72" type="curve"/>
			<point x="828.615" y="488.72"/>
			<point x="858.254" y="473.542"/>
			<point x="847.614" y="456.086" type="curve"/>
			<point x="810.375" y="395.372" type="line"/>
			<point x="807.335" y="390.06"/>
			<point x="802.015" y="385.506"/>
			<point x="793.655" y="388.542" type="curve"/>
			<point x="789.855" y="390.06"/>
			<point x="782.255" y="392.336"/>
			<point x="775.416" y="392.336" type="curve"/>
			<point x="752.616" y="392.336"/>
			<point x="735.136" y="374.881"/>
			<point x="735.136" y="349.077" type="curve"/>
			<point x="735.136" y="191.979" type="line"/>
			<point x="735.136" y="182.872"/>
			<point x="730.577" y="177.56"/>
			<point x="718.417" y="177.56" type="curve"/>
		</contour>
	</outline>
</glyph>
<glyph name="uniE905" format="2">
	<advance width="974"/>
	<unicode hex="E905"/>
	<outline>
		<contour>
			<point x="487" y="1" type="curve"/>
			<point x="729" y="1"/>
			<point x="924" y="196"/>
			<point x="924" y="438" type="curve"/>
			<point x="924" y="679"/>
			<point x="729" y="874"/>
			<point x="487" y="874" type="curve"/>
			<point x="487" y="874" type="line"/>
			<point x="246" y="874"/>
			<point x="50" y="679"/>
			<point x="50" y="438" type="curve"/>
			<point x="50" y="196"/>
			<point x="246" y="1"/>
		</contour>
		<contour>
			<point x="207" y="174" type="line"/>
			<point x="198" y="174"/>
			<point x="192" y="181"/>
			<point x="192" y="188" type="curve"/>
			<point x="192" y="688" type="line"/>
			<point x="192" y="696"/>
			<point x="198" y="703"/>
			<point x="207" y="703" type="curve"/>
			<point x="388" y="703" type="line"/>
			<point x="480" y="703"/>
			<point x="556" y="627"/>
			<point x="556" y="536" type="curve"/>
			<point x="556" y="442"/>
			<point x="480" y="366"/>
			<point x="388" y="366" type="curve"/>
			<point x="309" y="366" type="line"/>
			<point x="309" y="188" type="line"/>
			<point x="309" y="181"/>
			<point x="303" y="174"/>
			<point x="295" y="174" type="curve"/>
		</contour>
		<contour>
			<point x="309" y="476" type="line"/>
			<point x="381" y="476" type="line"/>
			<point x="413" y="476"/>
			<point x="440" y="502"/>
			<point x="440" y="536" type="curve"/>
			<point x="440" y="567"/>
			<point x="413" y="591"/>
			<point x="381" y="591" type="curve"/>
			<point x="309" y="591" type="line"/>
		</contour>
		<contour>
			<point x="684" y="171" type="curve"/>
			<point x="635" y="171"/>
			<point x="597" y="184"/>
			<point x="582" y="196" type="curve"/>
			<point x="577" y="201"/>
			<point x="573" y="205"/>
			<point x="577" y="212" type="curve"/>
			<point x="603" y="264" type="line"/>
			<point x="605" y="269"/>
			<point x="613" y="273"/>
			<point x="619" y="270" type="curve"/>
			<point x="619" y="270"/>
			<point x="654" y="251"/>
			<point x="687" y="251" type="curve"/>
			<point x="694" y="251"/>
			<point x="701" y="255"/>
			<point x="701" y="264" type="curve"/>
			<point x="701" y="272"/>
			<point x="696" y="282"/>
			<point x="658" y="296" type="curve"/>
			<point x="599" y="316"/>
			<point x="574" y="350"/>
			<point x="574" y="397" type="curve"/>
			<point x="574" y="448"/>
			<point x="610" y="488"/>
			<point x="691" y="488" type="curve"/>
			<point x="738" y="488"/>
			<point x="774" y="476"/>
			<point x="791" y="465" type="curve"/>
			<point x="798" y="461"/>
			<point x="803" y="454"/>
			<point x="799" y="446" type="curve"/>
			<point x="771" y="395" type="line"/>
			<point x="768" y="390"/>
			<point x="761" y="388"/>
			<point x="755" y="390" type="curve"/>
			<point x="755" y="390"/>
			<point x="720" y="408"/>
			<point x="691" y="408" type="curve"/>
			<point x="681" y="408"/>
			<point x="675" y="405"/>
			<point x="675" y="397" type="curve"/>
			<point x="675" y="390"/>
			<point x="683" y="382"/>
			<point x="708" y="373" type="curve"/>
			<point x="769" y="352"/>
			<point x="811" y="328"/>
			<point x="811" y="267" type="curve"/>
			<point x="811" y="214"/>
			<point x="769" y="171"/>
		</contour>
	</outline>
</glyph>
<glyph name="uniE906" format="2">
	<advance width="1000"/>
	<unicode hex="E906"/>
	<outline>
		<contour>
			<point x="501.25" y="0.625" type="curve"/>
			<point x="742.536" y="0.625"/>
			<point x="938.125" y="196.214"/>
			<point x="938.125" y="437.5" type="curve"/>
			<point x="938.125" y="678.786"/>
			<point x="742.536" y="874.375"/>
			<point x="501.25" y="874.375" type="curve"/>
			<point x="501.25" y="874.375" type="line"/>
			<point x="259.964" y="874.375"/>
			<point x="64.375" y="678.786"/>
			<point x="64.375" y="437.5" type="curve"/>
			<point x="64.375" y="196.214"/>
			<point x="259.964" y="0.625"/>
		</contour>
		<contour>
			<point x="198.467" y="192.606" type="line"/>
			<point x="190.67" y="192.606"/>
			<point x="185" y="198.969"/>
			<point x="185" y="206.039" type="curve"/>
			<point x="185" y="674.067" type="line"/>
			<point x="185" y="681.137"/>
			<point x="190.67" y="687.5"/>
			<point x="198.467" y="687.5" type="curve"/>
			<point x="369.285" y="687.5" type="line"/>
			<point x="456.466" y="687.5"/>
			<point x="528.054" y="616.801"/>
			<point x="528.054" y="531.255" type="curve"/>
			<point x="528.054" y="443.588"/>
			<point x="456.466" y="372.182"/>
			<point x="369.994" y="372.182" type="curve"/>
			<point x="295.571" y="372.182" type="line"/>
			<point x="295.571" y="206.039" type="line"/>
			<point x="295.571" y="198.969"/>
			<point x="289.192" y="192.606"/>
			<point x="282.104" y="192.606" type="curve"/>
		</contour>
		<contour>
			<point x="295.571" y="475.403" type="line"/>
			<point x="362.906" y="475.403" type="line"/>
			<point x="393.384" y="475.403"/>
			<point x="418.9" y="499.44"/>
			<point x="418.9" y="531.255" type="curve"/>
			<point x="418.9" y="560.949"/>
			<point x="393.384" y="583.572"/>
			<point x="362.906" y="583.572" type="curve"/>
			<point x="295.571" y="583.572" type="line"/>
		</contour>
		<contour>
			<point x="679.499" y="187.5" type="curve"/>
			<point x="595.153" y="187.5"/>
			<point x="554.752" y="255.371"/>
			<point x="554.752" y="335.968" type="curve"/>
			<point x="554.752" y="463.934" type="line"/>
			<point x="554.752" y="471.711"/>
			<point x="561.131" y="477.366"/>
			<point x="568.219" y="477.366" type="curve"/>
			<point x="644.06" y="477.366" type="line"/>
			<point x="651.147" y="477.366"/>
			<point x="657.527" y="471.711"/>
			<point x="657.527" y="463.934" type="curve"/>
			<point x="657.527" y="333.14" type="line"/>
			<point x="657.527" y="304.154"/>
			<point x="673.829" y="278.702"/>
			<point x="702.889" y="278.702" type="curve"/>
			<point x="730.532" y="278.702"/>
			<point x="745.416" y="304.861"/>
			<point x="745.416" y="328.898" type="curve"/>
			<point x="745.416" y="463.934" type="line"/>
			<point x="745.416" y="475.245"/>
			<point x="753.213" y="477.366"/>
			<point x="760.301" y="477.366" type="curve"/>
			<point x="832.597" y="477.366" type="line"/>
			<point x="839.685" y="477.366"/>
			<point x="846.064" y="471.711"/>
			<point x="846.064" y="463.934" type="curve"/>
			<point x="846.064" y="208.003" type="line"/>
			<point x="846.064" y="200.933"/>
			<point x="839.685" y="194.57"/>
			<point x="832.597" y="194.57" type="curve"/>
			<point x="799.284" y="194.57" type="line"/>
			<point x="792.905" y="194.57"/>
			<point x="787.944" y="199.519"/>
			<point x="785.817" y="204.468" type="curve"/>
			<point x="775.186" y="230.626" type="line"/>
			<point x="756.757" y="212.952"/>
			<point x="734.076" y="187.5"/>
		</contour>
	</outline>
</glyph>
<glyph name="uniE907" format="2">
	<advance width="974"/>
	<unicode hex="E907"/>
	<outline>
		<contour>
			<point x="487" y="1" type="curve"/>
			<point x="729" y="1"/>
			<point x="924" y="196"/>
			<point x="924" y="438" type="curve"/>
			<point x="924" y="679"/>
			<point x="729" y="874"/>
			<point x="487" y="874" type="curve"/>
			<point x="487" y="874" type="line"/>
			<point x="246" y="874"/>
			<point x="50" y="679"/>
			<point x="50" y="438" type="curve"/>
			<point x="50" y="196"/>
			<point x="246" y="1"/>
		</contour>
		<contour>
			<point x="500" y="125" type="curve"/>
			<point x="327" y="125"/>
			<point x="187" y="263"/>
			<point x="187" y="437" type="curve"/>
			<point x="187" y="610"/>
			<point x="327" y="750"/>
			<point x="500" y="750" type="curve"/>
			<point x="587" y="750"/>
			<point x="651" y="723"/>
			<point x="710" y="669" type="curve"/>
			<point x="718" y="662"/>
			<point x="718" y="652"/>
			<point x="711" y="645" type="curve"/>
			<point x="643" y="575" type="line"/>
			<point x="637" y="569"/>
			<point x="628" y="569"/>
			<point x="622" y="575" type="curve"/>
			<point x="590" y="603"/>
			<point x="547" y="619"/>
			<point x="505" y="619" type="curve"/>
			<point x="407" y="619"/>
			<point x="335" y="537"/>
			<point x="335" y="440" type="curve"/>
			<point x="335" y="344"/>
			<point x="408" y="264"/>
			<point x="505" y="264" type="curve"/>
			<point x="546" y="264"/>
			<point x="590" y="279"/>
			<point x="622" y="306" type="curve"/>
			<point x="628" y="311"/>
			<point x="639" y="311"/>
			<point x="644" y="305" type="curve"/>
			<point x="712" y="233" type="line"/>
			<point x="718" y="227"/>
			<point x="717" y="215"/>
			<point x="711" y="209" type="curve"/>
			<point x="652" y="152"/>
			<point x="577" y="125"/>
		</contour>
	</outline>
</glyph>
<glyph name="uniE908" format="2">
	<advance width="974"/>
	<unicode hex="E908"/>
	<outline>
		<contour>
			<point x="487" y="1" type="curve"/>
			<point x="729" y="1"/>
			<point x="924" y="196"/>
			<point x="924" y="438" type="curve"/>
			<point x="924" y="679"/>
			<point x="729" y="874"/>
			<point x="487" y="874" type="curve"/>
			<point x="487" y="874" type="line"/>
			<point x="246" y="874"/>
			<point x="50" y="679"/>
			<point x="50" y="438" type="curve"/>
			<point x="50" y="196"/>
			<point x="246" y="1"/>
		</contour>
		<contour>
			<point x="281" y="125" type="line"/>
			<point x="271" y="125"/>
			<point x="264" y="133"/>
			<point x="264" y="142" type="curve"/>
			<point x="264" y="733" type="line"/>
			<point x="264" y="742"/>
			<point x="271" y="750"/>
			<point x="281" y="750" type="curve"/>
			<point x="548" y="750" type="line"/>
			<point x="656" y="750"/>
			<point x="744" y="663"/>
			<point x="744" y="557" type="curve"/>
			<point x="744" y="475"/>
			<point x="689" y="409"/>
			<point x="611" y="378" type="curve"/>
			<point x="734" y="151" type="line"/>
			<point x="740" y="139"/>
			<point x="734" y="125"/>
			<point x="719" y="125" type="curve"/>
			<point x="599" y="125" type="line"/>
			<point x="592" y="125"/>
			<point x="587" y="129"/>
			<point x="585" y="133" type="curve"/>
			<point x="466" y="370" type="line"/>
			<point x="404" y="370" type="line"/>
			<point x="404" y="142" type="line"/>
			<point x="404" y="133"/>
			<point x="396" y="125"/>
			<point x="387" y="125" type="curve"/>
		</contour>
		<contour>
			<point x="404" y="483" type="line"/>
			<point x="537" y="483" type="line"/>
			<point x="573" y="483"/>
			<point x="605" y="517"/>
			<point x="605" y="554" type="curve"/>
			<point x="605" y="592"/>
			<point x="573" y="622"/>
			<point x="537" y="622" type="curve"/>
			<point x="404" y="622" type="line"/>
		</contour>
	</outline>
</glyph>
<glyph name="uniE950" format="2">
	<advance width="974"/>
	<unicode hex="E950"/>
	<outline>
		<contour>
			<point x="50" y="874" type="line"/>
			<point x="924" y="874" type="line"/>
			<point x="924" y="1" type="line"/>
			<point x="50" y="1" type="line"/>
		</contour>
		<contour>
			<point x="494" y="179" type="line"/>
			<point x="498" y="179"/>
			<point x="505" y="183"/>
			<point x="507" y="187" type="curve"/>
			<point x="638" y="441" type="line"/>
			<point x="640" y="441" type="line"/>
			<point x="675" y="199" type="line"/>
			<point x="676" y="193"/>
			<point x="683" y="187"/>
			<point x="690" y="187" type="curve"/>
			<point x="782" y="187" type="line"/>
			<point x="791" y="187"/>
			<point x="798" y="194"/>
			<point x="797" y="204" type="curve"/>
			<point x="708" y="729" type="line"/>
			<point x="708" y="736"/>
			<point x="701" y="741"/>
			<point x="694" y="741" type="curve"/>
			<point x="682" y="741" type="line"/>
			<point x="678" y="741"/>
			<point x="671" y="738"/>
			<point x="669" y="734" type="curve"/>
			<point x="487" y="396" type="line"/>
			<point x="486" y="396" type="line"/>
			<point x="305" y="734" type="line"/>
			<point x="302" y="738"/>
			<point x="295" y="741"/>
			<point x="291" y="741" type="curve"/>
			<point x="279" y="741" type="line"/>
			<point x="273" y="741"/>
			<point x="266" y="736"/>
			<point x="265" y="729" type="curve"/>
			<point x="176" y="204" type="line"/>
			<point x="175" y="194"/>
			<point x="182" y="187"/>
			<point x="191" y="187" type="curve"/>
			<point x="283" y="187" type="line"/>
			<point x="291" y="187"/>
			<point x="298" y="193"/>
			<point x="298" y="199" type="curve"/>
			<point x="333" y="441" type="line"/>
			<point x="334" y="441" type="line"/>
			<point x="466" y="187" type="line"/>
			<point x="469" y="183"/>
			<point x="475" y="179"/>
			<point x="480" y="179" type="curve"/>
		</contour>
	</outline>
</glyph>
<glyph name="uniE951" format="2">
	<advance width="974"/>
	<unicode hex="E951"/>
	<outline>
		<contour>
			<point x="50" y="874" type="line"/>
			<point x="924" y="874" type="line"/>
			<point x="924" y="1" type="line"/>
			<point x="50" y="1" type="line"/>
		</contour>
		<contour>
			<point x="487" y="125" type="curve"/>
			<point x="615" y="125"/>
			<point x="692" y="215"/>
			<point x="692" y="305" type="curve"/>
			<point x="692" y="423"/>
			<point x="585" y="476"/>
			<point x="517" y="503" type="curve"/>
			<point x="448" y="530"/>
			<point x="422" y="555"/>
			<point x="422" y="587" type="curve"/>
			<point x="422" y="610"/>
			<point x="446" y="631"/>
			<point x="477" y="631" type="curve"/>
			<point x="530" y="631"/>
			<point x="593" y="583"/>
			<point x="601" y="579" type="curve"/>
			<point x="609" y="573"/>
			<point x="624" y="581"/>
			<point x="631" y="590" type="curve"/>
			<point x="675" y="657" type="line"/>
			<point x="678" y="663"/>
			<point x="680" y="679"/>
			<point x="670" y="685" type="curve"/>
			<point x="644" y="704"/>
			<point x="574" y="750"/>
			<point x="484" y="750" type="curve"/>
			<point x="350" y="750"/>
			<point x="284" y="663"/>
			<point x="284" y="577" type="curve"/>
			<point x="284" y="473"/>
			<point x="377" y="415"/>
			<point x="452" y="385" type="curve"/>
			<point x="511" y="362"/>
			<point x="541" y="334"/>
			<point x="541" y="298" type="curve"/>
			<point x="541" y="267"/>
			<point x="516" y="246"/>
			<point x="481" y="246" type="curve"/>
			<point x="424" y="246"/>
			<point x="362" y="292"/>
			<point x="358" y="293" type="curve"/>
			<point x="352" y="298"/>
			<point x="336" y="299"/>
			<point x="329" y="288" type="curve"/>
			<point x="288" y="216" type="line"/>
			<point x="281" y="204"/>
			<point x="284" y="201"/>
			<point x="292" y="192" type="curve"/>
			<point x="312" y="172"/>
			<point x="375" y="125"/>
		</contour>
	</outline>
</glyph>
<glyph name="uniE952" format="2">
	<advance width="974"/>
	<unicode hex="E952"/>
	<outline>
		<contour>
			<point x="50" y="874" type="line"/>
			<point x="924" y="874" type="line"/>
			<point x="924" y="1" type="line"/>
			<point x="50" y="1" type="line"/>
		</contour>
		<contour>
			<point x="303" y="132" type="line"/>
			<point x="321" y="132"/>
			<point x="330" y="142"/>
			<point x="335" y="153" type="curve"/>
			<point x="367" y="223" type="line"/>
			<point x="606" y="223" type="line"/>
			<point x="638" y="154" type="line"/>
			<point x="646" y="137"/>
			<point x="653" y="132"/>
			<point x="669" y="132" type="curve"/>
			<point x="767" y="132" type="line"/>
			<point x="780" y="132"/>
			<point x="787" y="143"/>
			<point x="781" y="154" type="curve"/>
			<point x="506" y="747" type="line"/>
			<point x="503" y="752"/>
			<point x="497" y="757"/>
			<point x="491" y="757" type="curve"/>
			<point x="482" y="757" type="line"/>
			<point x="476" y="757"/>
			<point x="470" y="752"/>
			<point x="467" y="747" type="curve"/>
			<point x="191" y="154" type="line"/>
			<point x="186" y="143"/>
			<point x="193" y="132"/>
			<point x="206" y="132" type="curve"/>
		</contour>
		<contour>
			<point x="553" y="343" type="line"/>
			<point x="419" y="343" type="line"/>
			<point x="485" y="488" type="line"/>
			<point x="486" y="488" type="line"/>
		</contour>
	</outline>
</glyph>
<glyph name="uniE953" format="2">
	<advance width="972"/>
	<unicode hex="E953"/>
	<outline>
		<contour>
			<point x="50" y="872" type="line"/>
			<point x="922" y="872" type="line"/>
			<point x="922" y="1" type="line"/>
			<point x="50" y="1" type="line"/>
		</contour>
		<contour>
			<point x="430" y="127" type="line"/>
			<point x="439" y="127"/>
			<point x="447" y="135"/>
			<point x="447" y="144" type="curve"/>
			<point x="447" y="353" type="line"/>
			<point x="540" y="353" type="line"/>
			<point x="649" y="353"/>
			<point x="738" y="443"/>
			<point x="738" y="554" type="curve"/>
			<point x="738" y="662"/>
			<point x="649" y="751"/>
			<point x="540" y="751" type="curve"/>
			<point x="326" y="751" type="line"/>
			<point x="316" y="751"/>
			<point x="309" y="743"/>
			<point x="309" y="734" type="curve"/>
			<point x="309" y="144" type="line"/>
			<point x="309" y="135"/>
			<point x="316" y="127"/>
			<point x="326" y="127" type="curve"/>
		</contour>
		<contour>
			<point x="532" y="483" type="curve"/>
			<point x="447" y="483" type="line"/>
			<point x="447" y="620" type="line"/>
			<point x="532" y="620" type="line"/>
			<point x="570" y="620"/>
			<point x="602" y="591"/>
			<point x="602" y="554" type="curve"/>
			<point x="602" y="514"/>
			<point x="570" y="483"/>
		</contour>
	</outline>
</glyph>
<glyph name="uniE954" format="2">
	<advance width="972"/>
	<unicode hex="E954"/>
	<outline>
		<contour>
			<point x="50" y="872" type="line"/>
			<point x="922" y="872" type="line"/>
			<point x="922" y="1" type="line"/>
			<point x="50" y="1" type="line"/>
		</contour>
		<contour>
			<point x="703" y="180" type="line"/>
			<point x="715" y="180"/>
			<point x="719" y="185"/>
			<point x="719" y="194" type="curve"/>
			<point x="719" y="351" type="line"/>
			<point x="719" y="376"/>
			<point x="737" y="394"/>
			<point x="759" y="394" type="curve"/>
			<point x="766" y="394"/>
			<point x="774" y="392"/>
			<point x="778" y="390" type="curve"/>
			<point x="786" y="387"/>
			<point x="791" y="392"/>
			<point x="794" y="397" type="curve"/>
			<point x="832" y="457" type="line"/>
			<point x="842" y="475"/>
			<point x="813" y="490"/>
			<point x="771" y="490" type="curve"/>
			<point x="731" y="490"/>
			<point x="703" y="462"/>
			<point x="688" y="440" type="curve"/>
			<point x="675" y="473" type="line"/>
			<point x="672" y="478"/>
			<point x="669" y="482"/>
			<point x="661" y="482" type="curve"/>
			<point x="625" y="482" type="line"/>
			<point x="618" y="482"/>
			<point x="611" y="476"/>
			<point x="611" y="468" type="curve"/>
			<point x="611" y="194" type="line"/>
			<point x="611" y="186"/>
			<point x="618" y="180"/>
			<point x="625" y="180" type="curve"/>
		</contour>
		<contour>
			<point x="319" y="175" type="line"/>
			<point x="327" y="175"/>
			<point x="334" y="181"/>
			<point x="334" y="189" type="curve"/>
			<point x="334" y="367" type="line"/>
			<point x="413" y="367" type="line"/>
			<point x="506" y="367"/>
			<point x="582" y="443"/>
			<point x="582" y="537" type="curve"/>
			<point x="582" y="629"/>
			<point x="506" y="704"/>
			<point x="413" y="704" type="curve"/>
			<point x="230" y="704" type="line"/>
			<point x="221" y="704"/>
			<point x="215" y="698"/>
			<point x="215" y="690" type="curve"/>
			<point x="215" y="189" type="line"/>
			<point x="215" y="181"/>
			<point x="221" y="175"/>
			<point x="230" y="175" type="curve"/>
		</contour>
		<contour>
			<point x="406" y="477" type="curve"/>
			<point x="334" y="477" type="line"/>
			<point x="334" y="593" type="line"/>
			<point x="406" y="593" type="line"/>
			<point x="438" y="593"/>
			<point x="466" y="569"/>
			<point x="466" y="537" type="curve"/>
			<point x="466" y="503"/>
			<point x="438" y="477"/>
		</contour>
	</outline>
</glyph>
<glyph name="uniE955" format="2">
	<advance width="972"/>
	<unicode hex="E955"/>
	<outline>
		<contour>
			<point x="50" y="872" type="line"/>
			<point x="922" y="872" type="line"/>
			<point x="922" y="1" type="line"/>
			<point x="50" y="1" type="line"/>
		</contour>
		<contour>
			<point x="684" y="173" type="curve"/>
			<point x="768" y="173"/>
			<point x="810" y="216"/>
			<point x="810" y="269" type="curve"/>
			<point x="810" y="329"/>
			<point x="768" y="353"/>
			<point x="708" y="374" type="curve"/>
			<point x="682" y="384"/>
			<point x="674" y="391"/>
			<point x="674" y="399" type="curve"/>
			<point x="674" y="407"/>
			<point x="681" y="409"/>
			<point x="690" y="409" type="curve"/>
			<point x="720" y="409"/>
			<point x="754" y="392"/>
			<point x="754" y="392" type="curve"/>
			<point x="760" y="390"/>
			<point x="768" y="392"/>
			<point x="770" y="396" type="curve"/>
			<point x="797" y="448" type="line"/>
			<point x="802" y="455"/>
			<point x="797" y="462"/>
			<point x="790" y="466" type="curve"/>
			<point x="774" y="477"/>
			<point x="738" y="490"/>
			<point x="690" y="490" type="curve"/>
			<point x="609" y="490"/>
			<point x="573" y="449"/>
			<point x="573" y="399" type="curve"/>
			<point x="573" y="352"/>
			<point x="599" y="318"/>
			<point x="657" y="298" type="curve"/>
			<point x="696" y="284"/>
			<point x="700" y="274"/>
			<point x="700" y="266" type="curve"/>
			<point x="700" y="257"/>
			<point x="693" y="252"/>
			<point x="686" y="252" type="curve"/>
			<point x="654" y="252"/>
			<point x="618" y="272"/>
			<point x="618" y="272" type="curve"/>
			<point x="612" y="275"/>
			<point x="605" y="271"/>
			<point x="603" y="266" type="curve"/>
			<point x="576" y="214" type="line"/>
			<point x="573" y="207"/>
			<point x="576" y="203"/>
			<point x="582" y="198" type="curve"/>
			<point x="597" y="186"/>
			<point x="634" y="173"/>
		</contour>
		<contour>
			<point x="295" y="176" type="line"/>
			<point x="303" y="176"/>
			<point x="310" y="183"/>
			<point x="310" y="190" type="curve"/>
			<point x="310" y="367" type="line"/>
			<point x="388" y="367" type="line"/>
			<point x="480" y="367"/>
			<point x="556" y="443"/>
			<point x="556" y="537" type="curve"/>
			<point x="556" y="628"/>
			<point x="480" y="703"/>
			<point x="388" y="703" type="curve"/>
			<point x="207" y="703" type="line"/>
			<point x="199" y="703"/>
			<point x="193" y="696"/>
			<point x="193" y="689" type="curve"/>
			<point x="193" y="190" type="line"/>
			<point x="193" y="183"/>
			<point x="199" y="176"/>
			<point x="207" y="176" type="curve"/>
		</contour>
		<contour>
			<point x="381" y="477" type="curve"/>
			<point x="310" y="477" type="line"/>
			<point x="310" y="592" type="line"/>
			<point x="381" y="592" type="line"/>
			<point x="413" y="592"/>
			<point x="440" y="568"/>
			<point x="440" y="537" type="curve"/>
			<point x="440" y="503"/>
			<point x="413" y="477"/>
		</contour>
	</outline>
</glyph>
<glyph name="uniE956" format="2">
	<advance width="969"/>
	<unicode hex="E956"/>
	<outline>
		<contour>
			<point x="50" y="870" type="line"/>
			<point x="919" y="870" type="line"/>
			<point x="919" y="1" type="line"/>
			<point x="50" y="1" type="line"/>
		</contour>
		<contour>
			<point x="662" y="192" type="curve"/>
			<point x="716" y="192"/>
			<point x="739" y="217"/>
			<point x="757" y="234" type="curve"/>
			<point x="768" y="208" type="line"/>
			<point x="770" y="204"/>
			<point x="775" y="199"/>
			<point x="781" y="199" type="curve"/>
			<point x="814" y="199" type="line"/>
			<point x="822" y="199"/>
			<point x="828" y="205"/>
			<point x="828" y="212" type="curve"/>
			<point x="828" y="467" type="line"/>
			<point x="828" y="474"/>
			<point x="822" y="480"/>
			<point x="814" y="480" type="curve"/>
			<point x="743" y="480" type="line"/>
			<point x="735" y="480"/>
			<point x="728" y="478"/>
			<point x="728" y="467" type="curve"/>
			<point x="728" y="332" type="line"/>
			<point x="728" y="308"/>
			<point x="713" y="282"/>
			<point x="685" y="282" type="curve"/>
			<point x="656" y="282"/>
			<point x="640" y="308"/>
			<point x="640" y="336" type="curve"/>
			<point x="640" y="467" type="line"/>
			<point x="640" y="474"/>
			<point x="634" y="480"/>
			<point x="627" y="480" type="curve"/>
			<point x="551" y="480" type="line"/>
			<point x="544" y="480"/>
			<point x="538" y="474"/>
			<point x="538" y="467" type="curve"/>
			<point x="538" y="339" type="line"/>
			<point x="538" y="259"/>
			<point x="578" y="192"/>
		</contour>
		<contour>
			<point x="267" y="197" type="line"/>
			<point x="274" y="197"/>
			<point x="280" y="203"/>
			<point x="280" y="210" type="curve"/>
			<point x="280" y="375" type="line"/>
			<point x="354" y="375" type="line"/>
			<point x="440" y="375"/>
			<point x="511" y="446"/>
			<point x="511" y="534" type="curve"/>
			<point x="511" y="619"/>
			<point x="440" y="689"/>
			<point x="353" y="689" type="curve"/>
			<point x="183" y="689" type="line"/>
			<point x="176" y="689"/>
			<point x="170" y="683"/>
			<point x="170" y="676" type="curve"/>
			<point x="170" y="210" type="line"/>
			<point x="170" y="203"/>
			<point x="176" y="197"/>
			<point x="183" y="197" type="curve"/>
		</contour>
		<contour>
			<point x="347" y="478" type="curve"/>
			<point x="280" y="478" type="line"/>
			<point x="280" y="586" type="line"/>
			<point x="347" y="586" type="line"/>
			<point x="377" y="586"/>
			<point x="403" y="563"/>
			<point x="403" y="534" type="curve"/>
			<point x="403" y="502"/>
			<point x="377" y="478"/>
		</contour>
	</outline>
</glyph>
<glyph name="uniE957" format="2">
	<advance width="970"/>
	<unicode hex="E957"/>
	<outline>
		<contour>
			<point x="50" y="870" type="line"/>
			<point x="920" y="870" type="line"/>
			<point x="920" y="1" type="line"/>
			<point x="50" y="1" type="line"/>
		</contour>
		<contour>
			<point x="497" y="129" type="curve"/>
			<point x="574" y="129"/>
			<point x="648" y="156"/>
			<point x="706" y="213" type="curve"/>
			<point x="712" y="219"/>
			<point x="713" y="230"/>
			<point x="707" y="236" type="curve"/>
			<point x="640" y="308" type="line"/>
			<point x="635" y="314"/>
			<point x="624" y="314"/>
			<point x="618" y="309" type="curve"/>
			<point x="586" y="282"/>
			<point x="542" y="268"/>
			<point x="502" y="268" type="curve"/>
			<point x="404" y="268"/>
			<point x="332" y="347"/>
			<point x="332" y="443" type="curve"/>
			<point x="332" y="540"/>
			<point x="404" y="621"/>
			<point x="501" y="621" type="curve"/>
			<point x="543" y="621"/>
			<point x="586" y="605"/>
			<point x="618" y="577" type="curve"/>
			<point x="624" y="571"/>
			<point x="633" y="571"/>
			<point x="639" y="577" type="curve"/>
			<point x="706" y="647" type="line"/>
			<point x="713" y="654"/>
			<point x="713" y="664"/>
			<point x="706" y="671" type="curve"/>
			<point x="647" y="724"/>
			<point x="583" y="751"/>
			<point x="497" y="751" type="curve"/>
			<point x="324" y="751"/>
			<point x="185" y="612"/>
			<point x="185" y="439" type="curve"/>
			<point x="185" y="267"/>
			<point x="324" y="129"/>
		</contour>
	</outline>
</glyph>
<glyph name="uniE958" format="2">
	<advance width="969"/>
	<unicode hex="E958"/>
	<outline>
		<contour>
			<point x="50" y="870" type="line"/>
			<point x="919" y="870" type="line"/>
			<point x="919" y="1" type="line"/>
			<point x="50" y="1" type="line"/>
		</contour>
		<contour>
			<point x="385" y="129" type="line"/>
			<point x="394" y="129"/>
			<point x="402" y="137"/>
			<point x="402" y="146" type="curve"/>
			<point x="402" y="373" type="line"/>
			<point x="464" y="373" type="line"/>
			<point x="582" y="137" type="line"/>
			<point x="584" y="134"/>
			<point x="589" y="129"/>
			<point x="596" y="129" type="curve"/>
			<point x="715" y="129" type="line"/>
			<point x="730" y="129"/>
			<point x="736" y="144"/>
			<point x="730" y="155" type="curve"/>
			<point x="608" y="381" type="line"/>
			<point x="686" y="412"/>
			<point x="740" y="478"/>
			<point x="740" y="559" type="curve"/>
			<point x="740" y="665"/>
			<point x="653" y="751"/>
			<point x="546" y="751" type="curve"/>
			<point x="279" y="751" type="line"/>
			<point x="269" y="751"/>
			<point x="262" y="743"/>
			<point x="262" y="734" type="curve"/>
			<point x="262" y="146" type="line"/>
			<point x="262" y="137"/>
			<point x="269" y="129"/>
			<point x="279" y="129" type="curve"/>
		</contour>
		<contour>
			<point x="534" y="486" type="curve"/>
			<point x="402" y="486" type="line"/>
			<point x="402" y="624" type="line"/>
			<point x="534" y="624" type="line"/>
			<point x="571" y="624"/>
			<point x="602" y="594"/>
			<point x="602" y="557" type="curve"/>
			<point x="602" y="519"/>
			<point x="571" y="486"/>
		</contour>
	</outline>
</glyph>
<glyph name="uniE959" format="2">
	<advance width="995"/>
	<unicode hex="E959"/>
	<outline>
		<contour>
			<point x="64.05473" y="870.02488" type="line"/>
			<point x="933.45771" y="870.02488" type="line"/>
			<point x="933.45771" y="0.62189" type="line"/>
			<point x="64.05473" y="0.62189" type="line"/>
		</contour>
		<contour>
			<point x="596.06786" y="248.75622" type="line"/>
			<point x="602.30824" y="248.75622"/>
			<point x="607.92462" y="254.35323"/>
			<point x="607.92462" y="260.57214" type="curve"/>
			<point x="607.92462" y="419.15423" type="line"/>
			<point x="650.98344" y="419.15423" type="line"/>
			<point x="733.98085" y="254.35323" type="line"/>
			<point x="735.22888" y="251.86567"/>
			<point x="738.97313" y="248.75622"/>
			<point x="743.96549" y="248.75622" type="curve"/>
			<point x="826.9629" y="248.75622" type="line"/>
			<point x="837.57156" y="248.75622"/>
			<point x="841.93982" y="258.70647"/>
			<point x="837.57156" y="266.79104" type="curve"/>
			<point x="752.078" y="424.75124" type="line"/>
			<point x="806.36953" y="446.51741"/>
			<point x="844.43604" y="492.53731"/>
			<point x="844.43604" y="549.75124" type="curve"/>
			<point x="844.43604" y="623.75622"/>
			<point x="783.28003" y="684.0796"/>
			<point x="708.39513" y="684.0796" type="curve"/>
			<point x="521.80701" y="684.0796" type="line"/>
			<point x="514.94257" y="684.0796"/>
			<point x="509.95025" y="678.48259"/>
			<point x="509.95025" y="672.26368" type="curve"/>
			<point x="509.95025" y="260.57214" type="line"/>
			<point x="509.95025" y="254.35323"/>
			<point x="514.94257" y="248.75622"/>
			<point x="521.80701" y="248.75622" type="curve"/>
		</contour>
		<contour>
			<point x="700.28261" y="498.13433" type="curve"/>
			<point x="607.92462" y="498.13433" type="line"/>
			<point x="607.92462" y="595.14925" type="line"/>
			<point x="700.28261" y="595.14925" type="line"/>
			<point x="725.86826" y="595.14925"/>
			<point x="747.70974" y="574.00498"/>
			<point x="747.70974" y="547.88557" type="curve"/>
			<point x="747.70974" y="521.76617"/>
			<point x="725.86826" y="498.13433"/>
		</contour>
		<contour>
			<point x="237.8589" y="248.75622" type="line"/>
			<point x="244.09931" y="248.75622"/>
			<point x="249.71566" y="254.35323"/>
			<point x="249.71566" y="260.57214" type="curve"/>
			<point x="249.71566" y="419.15423" type="line"/>
			<point x="292.77447" y="419.15423" type="line"/>
			<point x="375.77186" y="254.35323" type="line"/>
			<point x="377.01997" y="251.86567"/>
			<point x="380.76418" y="248.75622"/>
			<point x="385.75654" y="248.75622" type="curve"/>
			<point x="468.75391" y="248.75622" type="line"/>
			<point x="479.3626" y="248.75622"/>
			<point x="483.7309" y="258.70647"/>
			<point x="479.3626" y="266.79104" type="curve"/>
			<point x="393.86905" y="424.75124" type="line"/>
			<point x="448.16058" y="446.51741"/>
			<point x="486.22705" y="492.53731"/>
			<point x="486.22705" y="549.75124" type="curve"/>
			<point x="486.22705" y="623.75622"/>
			<point x="425.07107" y="684.0796"/>
			<point x="350.18621" y="684.0796" type="curve"/>
			<point x="163.59806" y="684.0796" type="line"/>
			<point x="156.73362" y="684.0796"/>
			<point x="151.74129" y="678.48259"/>
			<point x="151.74129" y="672.26368" type="curve"/>
			<point x="151.74129" y="260.57214" type="line"/>
			<point x="151.74129" y="254.35323"/>
			<point x="156.73362" y="248.75622"/>
			<point x="163.59806" y="248.75622" type="curve"/>
		</contour>
		<contour>
			<point x="342.0737" y="498.13433" type="curve"/>
			<point x="249.71566" y="498.13433" type="line"/>
			<point x="249.71566" y="595.14925" type="line"/>
			<point x="342.0737" y="595.14925" type="line"/>
			<point x="367.65935" y="595.14925"/>
			<point x="389.50075" y="574.00498"/>
			<point x="389.50075" y="547.88557" type="curve"/>
			<point x="389.50075" y="521.76617"/>
			<point x="367.65935" y="498.13433"/>
		</contour>
	</outline>
</glyph>
<glyph name="uniE9A0" format="2">
	<advance width="856"/>
	<unicode hex="E9A0"/>
	<outline>
		<contour>
			<point x="428" y="871" type="curve"/>
			<point x="432" y="871"/>
			<point x="436" y="869"/>
			<point x="440" y="867" type="curve"/>
			<point x="440" y="867" type="line"/>
			<point x="794" y="663" type="line"/>
			<point x="798" y="661"/>
			<point x="801" y="658"/>
			<point x="803" y="654" type="curve"/>
			<point x="805" y="650"/>
			<point x="806" y="646"/>
			<point x="806" y="642" type="curve"/>
			<point x="806" y="642" type="line"/>
			<point x="806" y="233" type="line"/>
			<point x="806" y="224"/>
			<point x="802" y="216"/>
			<point x="794" y="212" type="curve"/>
			<point x="794" y="212" type="line"/>
			<point x="440" y="8" type="line"/>
			<point x="433" y="3"/>
			<point x="423" y="3"/>
			<point x="416" y="8" type="curve"/>
			<point x="416" y="8" type="line"/>
			<point x="62" y="212" type="line"/>
			<point x="54" y="216"/>
			<point x="50" y="224"/>
			<point x="50" y="233" type="curve"/>
			<point x="50" y="233" type="line"/>
			<point x="50" y="642" type="line"/>
			<point x="50" y="646"/>
			<point x="51" y="650"/>
			<point x="53" y="654" type="curve"/>
			<point x="55" y="658"/>
			<point x="58" y="661"/>
			<point x="62" y="663" type="curve"/>
			<point x="62" y="663" type="line"/>
			<point x="416" y="867" type="line"/>
			<point x="420" y="869"/>
			<point x="424" y="871"/>
		</contour>
		<contour>
			<point x="433" y="235" type="line"/>
			<point x="436" y="235"/>
			<point x="442" y="238"/>
			<point x="444" y="242" type="curve"/>
			<point x="549" y="444" type="line"/>
			<point x="550" y="444" type="line"/>
			<point x="578" y="251" type="line"/>
			<point x="579" y="246"/>
			<point x="584" y="241"/>
			<point x="590" y="241" type="curve"/>
			<point x="663" y="241" type="line"/>
			<point x="671" y="241"/>
			<point x="677" y="247"/>
			<point x="675" y="255" type="curve"/>
			<point x="605" y="675" type="line"/>
			<point x="604" y="681"/>
			<point x="599" y="685"/>
			<point x="594" y="685" type="curve"/>
			<point x="584" y="685" type="line"/>
			<point x="580" y="685"/>
			<point x="575" y="683"/>
			<point x="573" y="679" type="curve"/>
			<point x="428" y="409" type="line"/>
			<point x="427" y="409" type="line"/>
			<point x="282" y="679" type="line"/>
			<point x="280" y="683"/>
			<point x="274" y="685"/>
			<point x="271" y="685" type="curve"/>
			<point x="261" y="685" type="line"/>
			<point x="256" y="685"/>
			<point x="251" y="681"/>
			<point x="250" y="675" type="curve"/>
			<point x="179" y="255" type="line"/>
			<point x="178" y="247"/>
			<point x="184" y="241"/>
			<point x="191" y="241" type="curve"/>
			<point x="265" y="241" type="line"/>
			<point x="271" y="241"/>
			<point x="276" y="246"/>
			<point x="277" y="251" type="curve"/>
			<point x="304" y="444" type="line"/>
			<point x="306" y="444" type="line"/>
			<point x="411" y="242" type="line"/>
			<point x="413" y="238"/>
			<point x="418" y="235"/>
			<point x="422" y="235" type="curve"/>
		</contour>
	</outline>
</glyph>
<glyph name="uniE9A1" format="2">
	<advance width="856"/>
	<unicode hex="E9A1"/>
	<outline>
		<contour>
			<point x="428" y="871" type="curve"/>
			<point x="432" y="871"/>
			<point x="436" y="869"/>
			<point x="440" y="867" type="curve"/>
			<point x="440" y="867" type="line"/>
			<point x="794" y="663" type="line"/>
			<point x="798" y="661"/>
			<point x="801" y="658"/>
			<point x="803" y="654" type="curve"/>
			<point x="805" y="650"/>
			<point x="806" y="646"/>
			<point x="806" y="642" type="curve"/>
			<point x="806" y="642" type="line"/>
			<point x="806" y="233" type="line"/>
			<point x="806" y="224"/>
			<point x="802" y="216"/>
			<point x="794" y="212" type="curve"/>
			<point x="794" y="212" type="line"/>
			<point x="440" y="8" type="line"/>
			<point x="433" y="3"/>
			<point x="423" y="3"/>
			<point x="416" y="8" type="curve"/>
			<point x="416" y="8" type="line"/>
			<point x="62" y="212" type="line"/>
			<point x="54" y="216"/>
			<point x="50" y="224"/>
			<point x="50" y="233" type="curve"/>
			<point x="50" y="233" type="line"/>
			<point x="50" y="642" type="line"/>
			<point x="50" y="646"/>
			<point x="51" y="650"/>
			<point x="53" y="654" type="curve"/>
			<point x="55" y="658"/>
			<point x="58" y="661"/>
			<point x="62" y="663" type="curve"/>
			<point x="62" y="663" type="line"/>
			<point x="416" y="867" type="line"/>
			<point x="420" y="869"/>
			<point x="424" y="871"/>
		</contour>
		<contour>
			<point x="430" y="188" type="curve"/>
			<point x="532" y="188"/>
			<point x="594" y="260"/>
			<point x="594" y="331" type="curve"/>
			<point x="594" y="426"/>
			<point x="508" y="468"/>
			<point x="454" y="490" type="curve"/>
			<point x="399" y="512"/>
			<point x="378" y="531"/>
			<point x="378" y="557" type="curve"/>
			<point x="378" y="576"/>
			<point x="397" y="592"/>
			<point x="422" y="592" type="curve"/>
			<point x="464" y="592"/>
			<point x="515" y="554"/>
			<point x="521" y="551" type="curve"/>
			<point x="527" y="546"/>
			<point x="540" y="552"/>
			<point x="545" y="560" type="curve"/>
			<point x="580" y="613" type="line"/>
			<point x="583" y="618"/>
			<point x="585" y="631"/>
			<point x="576" y="635" type="curve"/>
			<point x="555" y="651"/>
			<point x="500" y="688"/>
			<point x="427" y="688" type="curve"/>
			<point x="320" y="688"/>
			<point x="267" y="618"/>
			<point x="267" y="549" type="curve"/>
			<point x="267" y="466"/>
			<point x="342" y="419"/>
			<point x="402" y="396" type="curve"/>
			<point x="449" y="377"/>
			<point x="473" y="355"/>
			<point x="473" y="326" type="curve"/>
			<point x="473" y="301"/>
			<point x="453" y="284"/>
			<point x="425" y="284" type="curve"/>
			<point x="379" y="284"/>
			<point x="329" y="321"/>
			<point x="327" y="322" type="curve"/>
			<point x="322" y="326"/>
			<point x="308" y="327"/>
			<point x="303" y="318" type="curve"/>
			<point x="270" y="260" type="line"/>
			<point x="265" y="251"/>
			<point x="267" y="248"/>
			<point x="274" y="241" type="curve"/>
			<point x="290" y="225"/>
			<point x="340" y="188"/>
		</contour>
	</outline>
</glyph>
<glyph name="uniE9A2" format="2">
	<advance width="857"/>
	<unicode hex="E9A2"/>
	<outline>
		<contour>
			<point x="429" y="871" type="curve"/>
			<point x="433" y="871"/>
			<point x="437" y="869"/>
			<point x="441" y="867" type="curve"/>
			<point x="441" y="867" type="line"/>
			<point x="795" y="663" type="line"/>
			<point x="798" y="661"/>
			<point x="801" y="658"/>
			<point x="803" y="654" type="curve"/>
			<point x="806" y="650"/>
			<point x="807" y="646"/>
			<point x="807" y="642" type="curve"/>
			<point x="807" y="642" type="line"/>
			<point x="807" y="233" type="line"/>
			<point x="807" y="224"/>
			<point x="802" y="216"/>
			<point x="795" y="212" type="curve"/>
			<point x="795" y="212" type="line"/>
			<point x="441" y="8" type="line"/>
			<point x="433" y="3"/>
			<point x="424" y="3"/>
			<point x="416" y="8" type="curve"/>
			<point x="416" y="8" type="line"/>
			<point x="62" y="212" type="line"/>
			<point x="55" y="216"/>
			<point x="50" y="224"/>
			<point x="50" y="233" type="curve"/>
			<point x="50" y="233" type="line"/>
			<point x="50" y="642" type="line"/>
			<point x="50" y="646"/>
			<point x="51" y="650"/>
			<point x="54" y="654" type="curve"/>
			<point x="56" y="658"/>
			<point x="59" y="661"/>
			<point x="62" y="663" type="curve"/>
			<point x="62" y="663" type="line"/>
			<point x="416" y="867" type="line"/>
			<point x="420" y="869"/>
			<point x="424" y="871"/>
		</contour>
		<contour>
			<point x="279" y="250" type="line"/>
			<point x="294" y="250"/>
			<point x="301" y="258"/>
			<point x="305" y="267" type="curve"/>
			<point x="330" y="323" type="line"/>
			<point x="522" y="323" type="line"/>
			<point x="547" y="268" type="line"/>
			<point x="554" y="254"/>
			<point x="559" y="250"/>
			<point x="572" y="250" type="curve"/>
			<point x="650" y="250" type="line"/>
			<point x="661" y="250"/>
			<point x="666" y="259"/>
			<point x="662" y="268" type="curve"/>
			<point x="442" y="742" type="line"/>
			<point x="439" y="746"/>
			<point x="434" y="750"/>
			<point x="430" y="750" type="curve"/>
			<point x="422" y="750" type="line"/>
			<point x="418" y="750"/>
			<point x="413" y="746"/>
			<point x="410" y="742" type="curve"/>
			<point x="190" y="268" type="line"/>
			<point x="186" y="259"/>
			<point x="191" y="250"/>
			<point x="202" y="250" type="curve"/>
		</contour>
		<contour>
			<point x="480" y="419" type="line"/>
			<point x="372" y="419" type="line"/>
			<point x="425" y="535" type="line"/>
			<point x="426" y="535" type="line"/>
		</contour>
	</outline>
</glyph>
<glyph name="uniE9A3" format="2">
	<advance width="856"/>
	<unicode hex="E9A3"/>
	<outline>
		<contour>
			<point x="428" y="871" type="curve"/>
			<point x="432" y="871"/>
			<point x="436" y="869"/>
			<point x="440" y="867" type="curve"/>
			<point x="440" y="867" type="line"/>
			<point x="794" y="663" type="line"/>
			<point x="798" y="661"/>
			<point x="801" y="658"/>
			<point x="803" y="654" type="curve"/>
			<point x="805" y="650"/>
			<point x="806" y="646"/>
			<point x="806" y="642" type="curve"/>
			<point x="806" y="642" type="line"/>
			<point x="806" y="233" type="line"/>
			<point x="806" y="224"/>
			<point x="802" y="216"/>
			<point x="794" y="212" type="curve"/>
			<point x="794" y="212" type="line"/>
			<point x="440" y="8" type="line"/>
			<point x="433" y="3"/>
			<point x="423" y="3"/>
			<point x="416" y="8" type="curve"/>
			<point x="416" y="8" type="line"/>
			<point x="62" y="212" type="line"/>
			<point x="54" y="216"/>
			<point x="50" y="224"/>
			<point x="50" y="233" type="curve"/>
			<point x="50" y="233" type="line"/>
			<point x="50" y="642" type="line"/>
			<point x="50" y="646"/>
			<point x="51" y="650"/>
			<point x="53" y="654" type="curve"/>
			<point x="55" y="658"/>
			<point x="58" y="661"/>
			<point x="62" y="663" type="curve"/>
			<point x="62" y="663" type="line"/>
			<point x="416" y="867" type="line"/>
			<point x="420" y="869"/>
			<point x="424" y="871"/>
		</contour>
		<contour>
			<point x="391" y="188" type="line"/>
			<point x="398" y="188"/>
			<point x="404" y="194"/>
			<point x="404" y="201" type="curve"/>
			<point x="404" y="369" type="line"/>
			<point x="479" y="369" type="line"/>
			<point x="566" y="369"/>
			<point x="638" y="441"/>
			<point x="638" y="530" type="curve"/>
			<point x="638" y="616"/>
			<point x="566" y="688"/>
			<point x="478" y="688" type="curve"/>
			<point x="307" y="688" type="line"/>
			<point x="299" y="688"/>
			<point x="293" y="681"/>
			<point x="293" y="674" type="curve"/>
			<point x="293" y="201" type="line"/>
			<point x="293" y="194"/>
			<point x="299" y="188"/>
			<point x="307" y="188" type="curve"/>
		</contour>
		<contour>
			<point x="472" y="473" type="curve"/>
			<point x="404" y="473" type="line"/>
			<point x="404" y="583" type="line"/>
			<point x="472" y="583" type="line"/>
			<point x="503" y="583"/>
			<point x="528" y="560"/>
			<point x="528" y="530" type="curve"/>
			<point x="528" y="498"/>
			<point x="503" y="473"/>
		</contour>
	</outline>
</glyph>
<glyph name="uniE9A4" format="2">
	<advance width="856"/>
	<unicode hex="E9A4"/>
	<outline>
		<contour>
			<point x="428" y="871" type="curve"/>
			<point x="432" y="871"/>
			<point x="436" y="869"/>
			<point x="440" y="867" type="curve"/>
			<point x="440" y="867" type="line"/>
			<point x="794" y="663" type="line"/>
			<point x="798" y="661"/>
			<point x="801" y="658"/>
			<point x="803" y="654" type="curve"/>
			<point x="805" y="650"/>
			<point x="806" y="646"/>
			<point x="806" y="642" type="curve"/>
			<point x="806" y="642" type="line"/>
			<point x="806" y="233" type="line"/>
			<point x="806" y="224"/>
			<point x="802" y="216"/>
			<point x="794" y="212" type="curve"/>
			<point x="794" y="212" type="line"/>
			<point x="440" y="8" type="line"/>
			<point x="433" y="3"/>
			<point x="423" y="3"/>
			<point x="416" y="8" type="curve"/>
			<point x="416" y="8" type="line"/>
			<point x="62" y="212" type="line"/>
			<point x="54" y="216"/>
			<point x="50" y="224"/>
			<point x="50" y="233" type="curve"/>
			<point x="50" y="233" type="line"/>
			<point x="50" y="642" type="line"/>
			<point x="50" y="646"/>
			<point x="51" y="650"/>
			<point x="53" y="654" type="curve"/>
			<point x="55" y="658"/>
			<point x="58" y="661"/>
			<point x="62" y="663" type="curve"/>
			<point x="62" y="663" type="line"/>
			<point x="416" y="867" type="line"/>
			<point x="420" y="869"/>
			<point x="424" y="871"/>
		</contour>
		<contour>
			<point x="587" y="230" type="line"/>
			<point x="596" y="230"/>
			<point x="600" y="234"/>
			<point x="600" y="242" type="curve"/>
			<point x="600" y="367" type="line"/>
			<point x="600" y="388"/>
			<point x="614" y="402"/>
			<point x="632" y="402" type="curve"/>
			<point x="638" y="402"/>
			<point x="644" y="400"/>
			<point x="647" y="399" type="curve"/>
			<point x="654" y="396"/>
			<point x="658" y="400"/>
			<point x="660" y="404" type="curve"/>
			<point x="690" y="453" type="line"/>
			<point x="699" y="467"/>
			<point x="675" y="479"/>
			<point x="641" y="479" type="curve"/>
			<point x="610" y="479"/>
			<point x="587" y="456"/>
			<point x="575" y="439" type="curve"/>
			<point x="564" y="465" type="line"/>
			<point x="562" y="469"/>
			<point x="560" y="473"/>
			<point x="553" y="473" type="curve"/>
			<point x="525" y="473" type="line"/>
			<point x="518" y="473"/>
			<point x="513" y="468"/>
			<point x="513" y="461" type="curve"/>
			<point x="513" y="242" type="line"/>
			<point x="513" y="235"/>
			<point x="518" y="230"/>
			<point x="525" y="230" type="curve"/>
		</contour>
		<contour>
			<point x="280" y="225" type="line"/>
			<point x="286" y="225"/>
			<point x="291" y="230"/>
			<point x="291" y="237" type="curve"/>
			<point x="291" y="379" type="line"/>
			<point x="355" y="379" type="line"/>
			<point x="429" y="379"/>
			<point x="491" y="441"/>
			<point x="491" y="516" type="curve"/>
			<point x="491" y="589"/>
			<point x="429" y="650"/>
			<point x="355" y="650" type="curve"/>
			<point x="208" y="650" type="line"/>
			<point x="202" y="650"/>
			<point x="197" y="645"/>
			<point x="197" y="638" type="curve"/>
			<point x="197" y="237" type="line"/>
			<point x="197" y="230"/>
			<point x="202" y="225"/>
			<point x="208" y="225" type="curve"/>
		</contour>
		<contour>
			<point x="349" y="468" type="curve"/>
			<point x="291" y="468" type="line"/>
			<point x="291" y="561" type="line"/>
			<point x="349" y="561" type="line"/>
			<point x="375" y="561"/>
			<point x="397" y="541"/>
			<point x="397" y="516" type="curve"/>
			<point x="397" y="488"/>
			<point x="375" y="468"/>
		</contour>
	</outline>
</glyph>
<glyph name="uniE9A5" format="2">
	<advance width="856"/>
	<unicode hex="E9A5"/>
	<outline>
		<contour>
			<point x="428" y="871" type="curve"/>
			<point x="432" y="871"/>
			<point x="436" y="869"/>
			<point x="440" y="867" type="curve"/>
			<point x="440" y="867" type="line"/>
			<point x="794" y="663" type="line"/>
			<point x="798" y="661"/>
			<point x="801" y="658"/>
			<point x="803" y="654" type="curve"/>
			<point x="805" y="650"/>
			<point x="806" y="646"/>
			<point x="806" y="642" type="curve"/>
			<point x="806" y="642" type="line"/>
			<point x="806" y="233" type="line"/>
			<point x="806" y="224"/>
			<point x="802" y="216"/>
			<point x="794" y="212" type="curve"/>
			<point x="794" y="212" type="line"/>
			<point x="440" y="8" type="line"/>
			<point x="433" y="3"/>
			<point x="423" y="3"/>
			<point x="416" y="8" type="curve"/>
			<point x="416" y="8" type="line"/>
			<point x="62" y="212" type="line"/>
			<point x="54" y="216"/>
			<point x="50" y="224"/>
			<point x="50" y="233" type="curve"/>
			<point x="50" y="233" type="line"/>
			<point x="50" y="642" type="line"/>
			<point x="50" y="646"/>
			<point x="51" y="650"/>
			<point x="53" y="654" type="curve"/>
			<point x="55" y="658"/>
			<point x="58" y="661"/>
			<point x="62" y="663" type="curve"/>
			<point x="62" y="663" type="line"/>
			<point x="416" y="867" type="line"/>
			<point x="420" y="869"/>
			<point x="424" y="871"/>
		</contour>
		<contour>
			<point x="590" y="225" type="curve"/>
			<point x="658" y="225"/>
			<point x="692" y="259"/>
			<point x="692" y="302" type="curve"/>
			<point x="692" y="350"/>
			<point x="658" y="369"/>
			<point x="609" y="386" type="curve"/>
			<point x="589" y="394"/>
			<point x="582" y="400"/>
			<point x="582" y="406" type="curve"/>
			<point x="582" y="412"/>
			<point x="588" y="414"/>
			<point x="596" y="414" type="curve"/>
			<point x="619" y="414"/>
			<point x="647" y="400"/>
			<point x="647" y="400" type="curve"/>
			<point x="651" y="398"/>
			<point x="657" y="400"/>
			<point x="659" y="404" type="curve"/>
			<point x="682" y="445" type="line"/>
			<point x="685" y="451"/>
			<point x="681" y="456"/>
			<point x="676" y="460" type="curve"/>
			<point x="662" y="468"/>
			<point x="633" y="479"/>
			<point x="596" y="479" type="curve"/>
			<point x="531" y="479"/>
			<point x="502" y="446"/>
			<point x="502" y="406" type="curve"/>
			<point x="502" y="368"/>
			<point x="522" y="341"/>
			<point x="569" y="325" type="curve"/>
			<point x="600" y="314"/>
			<point x="603" y="305"/>
			<point x="603" y="299" type="curve"/>
			<point x="603" y="292"/>
			<point x="598" y="288"/>
			<point x="592" y="288" type="curve"/>
			<point x="566" y="288"/>
			<point x="538" y="304"/>
			<point x="538" y="304" type="curve"/>
			<point x="533" y="307"/>
			<point x="527" y="303"/>
			<point x="525" y="299" type="curve"/>
			<point x="504" y="258" type="line"/>
			<point x="501" y="252"/>
			<point x="504" y="249"/>
			<point x="508" y="245" type="curve"/>
			<point x="520" y="235"/>
			<point x="550" y="225"/>
		</contour>
		<contour>
			<point x="279" y="228" type="line"/>
			<point x="285" y="228"/>
			<point x="291" y="233"/>
			<point x="291" y="239" type="curve"/>
			<point x="291" y="381" type="line"/>
			<point x="354" y="381" type="line"/>
			<point x="427" y="381"/>
			<point x="488" y="442"/>
			<point x="488" y="517" type="curve"/>
			<point x="488" y="590"/>
			<point x="427" y="650"/>
			<point x="353" y="650" type="curve"/>
			<point x="208" y="650" type="line"/>
			<point x="202" y="650"/>
			<point x="197" y="645"/>
			<point x="197" y="639" type="curve"/>
			<point x="197" y="239" type="line"/>
			<point x="197" y="233"/>
			<point x="202" y="228"/>
			<point x="208" y="228" type="curve"/>
		</contour>
		<contour>
			<point x="348" y="469" type="curve"/>
			<point x="291" y="469" type="line"/>
			<point x="291" y="561" type="line"/>
			<point x="348" y="561" type="line"/>
			<point x="374" y="561"/>
			<point x="395" y="542"/>
			<point x="395" y="517" type="curve"/>
			<point x="395" y="489"/>
			<point x="374" y="469"/>
		</contour>
	</outline>
</glyph>
<glyph name="uniE9A6" format="2">
	<advance width="856"/>
	<unicode hex="E9A6"/>
	<outline>
		<contour>
			<point x="428" y="871" type="curve"/>
			<point x="432" y="871"/>
			<point x="436" y="869"/>
			<point x="440" y="867" type="curve"/>
			<point x="440" y="867" type="line"/>
			<point x="794" y="663" type="line"/>
			<point x="798" y="661"/>
			<point x="801" y="658"/>
			<point x="803" y="654" type="curve"/>
			<point x="805" y="650"/>
			<point x="806" y="646"/>
			<point x="806" y="642" type="curve"/>
			<point x="806" y="642" type="line"/>
			<point x="806" y="233" type="line"/>
			<point x="806" y="224"/>
			<point x="802" y="216"/>
			<point x="794" y="212" type="curve"/>
			<point x="794" y="212" type="line"/>
			<point x="440" y="8" type="line"/>
			<point x="433" y="3"/>
			<point x="423" y="3"/>
			<point x="416" y="8" type="curve"/>
			<point x="416" y="8" type="line"/>
			<point x="62" y="212" type="line"/>
			<point x="54" y="216"/>
			<point x="50" y="224"/>
			<point x="50" y="233" type="curve"/>
			<point x="50" y="233" type="line"/>
			<point x="50" y="642" type="line"/>
			<point x="50" y="646"/>
			<point x="51" y="650"/>
			<point x="53" y="654" type="curve"/>
			<point x="55" y="658"/>
			<point x="58" y="661"/>
			<point x="62" y="663" type="curve"/>
			<point x="62" y="663" type="line"/>
			<point x="416" y="867" type="line"/>
			<point x="420" y="869"/>
			<point x="424" y="871"/>
		</contour>
		<contour>
			<point x="575" y="238" type="curve"/>
			<point x="619" y="238"/>
			<point x="637" y="258"/>
			<point x="651" y="272" type="curve"/>
			<point x="660" y="251" type="line"/>
			<point x="662" y="247"/>
			<point x="666" y="243"/>
			<point x="671" y="243" type="curve"/>
			<point x="697" y="243" type="line"/>
			<point x="703" y="243"/>
			<point x="708" y="248"/>
			<point x="708" y="254" type="curve"/>
			<point x="708" y="459" type="line"/>
			<point x="708" y="465"/>
			<point x="703" y="470"/>
			<point x="697" y="470" type="curve"/>
			<point x="640" y="470" type="line"/>
			<point x="634" y="470"/>
			<point x="628" y="468"/>
			<point x="628" y="459" type="curve"/>
			<point x="628" y="351" type="line"/>
			<point x="628" y="332"/>
			<point x="616" y="311"/>
			<point x="594" y="311" type="curve"/>
			<point x="571" y="311"/>
			<point x="558" y="331"/>
			<point x="558" y="354" type="curve"/>
			<point x="558" y="459" type="line"/>
			<point x="558" y="465"/>
			<point x="552" y="470"/>
			<point x="547" y="470" type="curve"/>
			<point x="486" y="470" type="line"/>
			<point x="481" y="470"/>
			<point x="476" y="465"/>
			<point x="476" y="459" type="curve"/>
			<point x="476" y="357" type="line"/>
			<point x="476" y="292"/>
			<point x="508" y="238"/>
		</contour>
		<contour>
			<point x="257" y="241" type="line"/>
			<point x="263" y="241"/>
			<point x="268" y="246"/>
			<point x="268" y="252" type="curve"/>
			<point x="268" y="385" type="line"/>
			<point x="328" y="385" type="line"/>
			<point x="397" y="385"/>
			<point x="454" y="442"/>
			<point x="454" y="512" type="curve"/>
			<point x="454" y="581"/>
			<point x="397" y="638"/>
			<point x="327" y="638" type="curve"/>
			<point x="190" y="638" type="line"/>
			<point x="184" y="638"/>
			<point x="179" y="632"/>
			<point x="179" y="627" type="curve"/>
			<point x="179" y="252" type="line"/>
			<point x="179" y="246"/>
			<point x="184" y="241"/>
			<point x="190" y="241" type="curve"/>
		</contour>
		<contour>
			<point x="322" y="468" type="curve"/>
			<point x="268" y="468" type="line"/>
			<point x="268" y="554" type="line"/>
			<point x="322" y="554" type="line"/>
			<point x="346" y="554"/>
			<point x="367" y="536"/>
			<point x="367" y="512" type="curve"/>
			<point x="367" y="487"/>
			<point x="346" y="468"/>
		</contour>
	</outline>
</glyph>
<glyph name="uniE9A7" format="2">
	<advance width="856"/>
	<unicode hex="E9A7"/>
	<outline>
		<contour>
			<point x="428" y="871" type="curve"/>
			<point x="432" y="871"/>
			<point x="436" y="869"/>
			<point x="440" y="867" type="curve"/>
			<point x="440" y="867" type="line"/>
			<point x="794" y="663" type="line"/>
			<point x="798" y="661"/>
			<point x="801" y="658"/>
			<point x="803" y="654" type="curve"/>
			<point x="805" y="650"/>
			<point x="806" y="646"/>
			<point x="806" y="642" type="curve"/>
			<point x="806" y="642" type="line"/>
			<point x="806" y="233" type="line"/>
			<point x="806" y="224"/>
			<point x="802" y="216"/>
			<point x="794" y="212" type="curve"/>
			<point x="794" y="212" type="line"/>
			<point x="440" y="8" type="line"/>
			<point x="433" y="3"/>
			<point x="423" y="3"/>
			<point x="416" y="8" type="curve"/>
			<point x="416" y="8" type="line"/>
			<point x="62" y="212" type="line"/>
			<point x="54" y="216"/>
			<point x="50" y="224"/>
			<point x="50" y="233" type="curve"/>
			<point x="50" y="233" type="line"/>
			<point x="50" y="642" type="line"/>
			<point x="50" y="646"/>
			<point x="51" y="650"/>
			<point x="53" y="654" type="curve"/>
			<point x="55" y="658"/>
			<point x="58" y="661"/>
			<point x="62" y="663" type="curve"/>
			<point x="62" y="663" type="line"/>
			<point x="416" y="867" type="line"/>
			<point x="420" y="869"/>
			<point x="424" y="871"/>
		</contour>
		<contour>
			<point x="432" y="188" type="curve"/>
			<point x="493" y="188"/>
			<point x="553" y="209"/>
			<point x="600" y="255" type="curve"/>
			<point x="605" y="260"/>
			<point x="606" y="269"/>
			<point x="601" y="274" type="curve"/>
			<point x="547" y="331" type="line"/>
			<point x="543" y="336"/>
			<point x="534" y="336"/>
			<point x="529" y="332" type="curve"/>
			<point x="504" y="310"/>
			<point x="469" y="299"/>
			<point x="436" y="299" type="curve"/>
			<point x="358" y="299"/>
			<point x="300" y="363"/>
			<point x="300" y="440" type="curve"/>
			<point x="300" y="517"/>
			<point x="357" y="583"/>
			<point x="435" y="583" type="curve"/>
			<point x="469" y="583"/>
			<point x="503" y="570"/>
			<point x="529" y="547" type="curve"/>
			<point x="534" y="542"/>
			<point x="541" y="542"/>
			<point x="546" y="547" type="curve"/>
			<point x="600" y="603" type="line"/>
			<point x="606" y="609"/>
			<point x="606" y="617"/>
			<point x="599" y="623" type="curve"/>
			<point x="552" y="666"/>
			<point x="501" y="688"/>
			<point x="432" y="688" type="curve"/>
			<point x="293" y="688"/>
			<point x="182" y="576"/>
			<point x="182" y="437" type="curve"/>
			<point x="182" y="298"/>
			<point x="293" y="188"/>
		</contour>
	</outline>
</glyph>
<glyph name="uniE9A8" format="2">
	<advance width="857"/>
	<unicode hex="E9A8"/>
	<outline>
		<contour>
			<point x="429" y="871" type="curve"/>
			<point x="433" y="871"/>
			<point x="437" y="869"/>
			<point x="441" y="867" type="curve"/>
			<point x="441" y="867" type="line"/>
			<point x="795" y="663" type="line"/>
			<point x="798" y="661"/>
			<point x="801" y="658"/>
			<point x="803" y="654" type="curve"/>
			<point x="806" y="650"/>
			<point x="807" y="646"/>
			<point x="807" y="642" type="curve"/>
			<point x="807" y="642" type="line"/>
			<point x="807" y="233" type="line"/>
			<point x="807" y="224"/>
			<point x="802" y="216"/>
			<point x="795" y="212" type="curve"/>
			<point x="795" y="212" type="line"/>
			<point x="441" y="8" type="line"/>
			<point x="433" y="3"/>
			<point x="424" y="3"/>
			<point x="416" y="8" type="curve"/>
			<point x="416" y="8" type="line"/>
			<point x="62" y="212" type="line"/>
			<point x="55" y="216"/>
			<point x="50" y="224"/>
			<point x="50" y="233" type="curve"/>
			<point x="50" y="233" type="line"/>
			<point x="50" y="642" type="line"/>
			<point x="50" y="646"/>
			<point x="51" y="650"/>
			<point x="54" y="654" type="curve"/>
			<point x="56" y="658"/>
			<point x="59" y="661"/>
			<point x="62" y="663" type="curve"/>
			<point x="62" y="663" type="line"/>
			<point x="416" y="867" type="line"/>
			<point x="420" y="869"/>
			<point x="424" y="871"/>
		</contour>
		<contour>
			<point x="335" y="188" type="line"/>
			<point x="342" y="188"/>
			<point x="348" y="194"/>
			<point x="348" y="201" type="curve"/>
			<point x="348" y="383" type="line"/>
			<point x="398" y="383" type="line"/>
			<point x="493" y="194" type="line"/>
			<point x="494" y="191"/>
			<point x="499" y="188"/>
			<point x="504" y="188" type="curve"/>
			<point x="600" y="188" type="line"/>
			<point x="612" y="188"/>
			<point x="617" y="199"/>
			<point x="612" y="208" type="curve"/>
			<point x="514" y="390" type="line"/>
			<point x="576" y="415"/>
			<point x="620" y="468"/>
			<point x="620" y="533" type="curve"/>
			<point x="620" y="618"/>
			<point x="550" y="688"/>
			<point x="464" y="688" type="curve"/>
			<point x="250" y="688" type="line"/>
			<point x="242" y="688"/>
			<point x="236" y="681"/>
			<point x="236" y="674" type="curve"/>
			<point x="236" y="201" type="line"/>
			<point x="236" y="194"/>
			<point x="242" y="188"/>
			<point x="250" y="188" type="curve"/>
		</contour>
		<contour>
			<point x="454" y="474" type="curve"/>
			<point x="348" y="474" type="line"/>
			<point x="348" y="585" type="line"/>
			<point x="454" y="585" type="line"/>
			<point x="484" y="585"/>
			<point x="509" y="561"/>
			<point x="509" y="531" type="curve"/>
			<point x="509" y="501"/>
			<point x="484" y="474"/>
		</contour>
	</outline>
</glyph>
<glyph name="uniE9A9" format="2">
	<advance width="1000"/>
	<unicode hex="E9A9"/>
	<outline>
		<contour>
			<point x="151.42638" y="662.92561" type="line"/>
			<point x="505.3125" y="867.24186" type="line"/>
			<point x="512.85416" y="871.59603"/>
			<point x="522.14584" y="871.59603"/>
			<point x="529.6875" y="867.24186" type="curve"/>
			<point x="529.6875" y="867.24186" type="line"/>
			<point x="883.57361" y="662.92561" type="line"/>
			<point x="891.11526" y="658.57143"/>
			<point x="895.76111" y="650.5246"/>
			<point x="895.76111" y="641.81625" type="curve"/>
			<point x="895.76111" y="641.81625" type="line"/>
			<point x="895.76111" y="233.18375" type="line"/>
			<point x="895.76111" y="224.4754"/>
			<point x="891.11526" y="216.42853"/>
			<point x="883.57361" y="212.07436" type="curve"/>
			<point x="883.57361" y="212.07436" type="line"/>
			<point x="529.6875" y="7.75818" type="line"/>
			<point x="525.91667" y="5.58105"/>
			<point x="521.70834" y="4.49249"/>
			<point x="517.5" y="4.49249" type="curve"/>
			<point x="513.29166" y="4.49249"/>
			<point x="509.08333" y="5.58105"/>
			<point x="505.3125" y="7.75818" type="curve"/>
			<point x="505.3125" y="7.75818" type="line"/>
			<point x="151.42638" y="212.07436" type="line"/>
			<point x="143.88474" y="216.42853"/>
			<point x="139.23888" y="224.4754"/>
			<point x="139.23888" y="233.18375" type="curve"/>
			<point x="139.23888" y="233.18375" type="line"/>
			<point x="139.23888" y="641.81625" type="line"/>
			<point x="139.23888" y="646.17043"/>
			<point x="140.40034" y="650.35923"/>
			<point x="142.50452" y="654.00375" type="curve"/>
			<point x="144.60869" y="657.64828"/>
			<point x="147.65556" y="660.74852"/>
			<point x="151.42638" y="662.92561" type="curve"/>
		</contour>
		<contour>
			<point x="291.60097" y="250" type="line"/>
			<point x="296.97062" y="250"/>
			<point x="301.80328" y="254.8214"/>
			<point x="301.80328" y="260.1786" type="curve"/>
			<point x="301.80328" y="396.7857" type="line"/>
			<point x="338.85376" y="396.7857" type="line"/>
			<point x="410.26993" y="254.8214" type="line"/>
			<point x="411.34388" y="252.6786"/>
			<point x="414.56566" y="250"/>
			<point x="418.86135" y="250" type="curve"/>
			<point x="490.27752" y="250" type="line"/>
			<point x="499.4059" y="250"/>
			<point x="503.16463" y="258.5714"/>
			<point x="499.4059" y="265.53574" type="curve"/>
			<point x="425.84187" y="401.60713" type="line"/>
			<point x="472.55772" y="420.35713"/>
			<point x="505.3125" y="460"/>
			<point x="505.3125" y="509.2857" type="curve"/>
			<point x="505.3125" y="573.0357"/>
			<point x="452.69005" y="625"/>
			<point x="388.25443" y="625" type="curve"/>
			<point x="227.70231" y="625" type="line"/>
			<point x="221.79571" y="625"/>
			<point x="217.5" y="620.17857"/>
			<point x="217.5" y="614.82143" type="curve"/>
			<point x="217.5" y="260.1786" type="line"/>
			<point x="217.5" y="254.8214"/>
			<point x="221.79571" y="250"/>
			<point x="227.70231" y="250" type="curve"/>
		</contour>
		<contour>
			<point x="381.27392" y="464.82143" type="curve"/>
			<point x="301.80328" y="464.82143" type="line"/>
			<point x="301.80328" y="548.39287" type="line"/>
			<point x="381.27392" y="548.39287" type="line"/>
			<point x="403.28941" y="548.39287"/>
			<point x="422.08313" y="530.17857"/>
			<point x="422.08313" y="507.67857" type="curve"/>
			<point x="422.08313" y="485.17857"/>
			<point x="403.28941" y="464.82143"/>
		</contour>
		<contour>
			<point x="604.10099" y="250" type="line"/>
			<point x="609.47063" y="250"/>
			<point x="614.30328" y="254.8214"/>
			<point x="614.30328" y="260.1786" type="curve"/>
			<point x="614.30328" y="396.7857" type="line"/>
			<point x="651.35376" y="396.7857" type="line"/>
			<point x="722.76993" y="254.8214" type="line"/>
			<point x="723.84384" y="252.6786"/>
			<point x="727.06566" y="250"/>
			<point x="731.36139" y="250" type="curve"/>
			<point x="802.77748" y="250" type="line"/>
			<point x="811.9059" y="250"/>
			<point x="815.66467" y="258.5714"/>
			<point x="811.9059" y="265.53574" type="curve"/>
			<point x="738.3419" y="401.60713" type="line"/>
			<point x="785.05775" y="420.35713"/>
			<point x="817.8125" y="460"/>
			<point x="817.8125" y="509.2857" type="curve"/>
			<point x="817.8125" y="573.0357"/>
			<point x="765.19005" y="625"/>
			<point x="700.75439" y="625" type="curve"/>
			<point x="540.20229" y="625" type="line"/>
			<point x="534.29569" y="625"/>
			<point x="530" y="620.17857"/>
			<point x="530" y="614.82143" type="curve"/>
			<point x="530" y="260.1786" type="line"/>
			<point x="530" y="254.8214"/>
			<point x="534.29569" y="250"/>
			<point x="540.20229" y="250" type="curve"/>
		</contour>
		<contour>
			<point x="693.77388" y="464.82143" type="curve"/>
			<point x="614.30328" y="464.82143" type="line"/>
			<point x="614.30328" y="548.39287" type="line"/>
			<point x="693.77388" y="548.39287" type="line"/>
			<point x="715.78941" y="548.39287"/>
			<point x="734.58313" y="530.17857"/>
			<point x="734.58313" y="507.67857" type="curve"/>
			<point x="734.58313" y="485.17857"/>
			<point x="715.78941" y="464.82143"/>
		</contour>
	</outline>
</glyph>
